<svg xmlns="http://www.w3.org/2000/svg" version="1.1" xmlns:xlink="http://www.w3.org/1999/xlink" xmlns:svgjs="http://svgjs.dev/svgjs" width="100%" height="100%" viewBox="0 0 1000 600"><rect width="1000" height="600" x="0" y="0" fill="#e7d045"/><g><circle r="166.66666666666666" cx="354.01684061686194" cy="376.23910207093013" fill="#a04ef6" transform="matrix(0.6671995720540245,0,0,0.6671995720540246,0,48.97341006239091)"/><path d="M399.3017810376903 429.28018433720007L403.44606354779336 442.74910249503495Q397.2296397826388 447.5265392775149 387.67476621767895 449.3972223549919Q378.14867239237265 451.23912569281555 367.38504976196606 451.23912569281555L367.38504976196606 451.23912569281555Q354.31904795928006 451.23912569281555 342.92227105649664 446.8070457861775Q331.5254941537133 442.346186139886 323.0354709559327 433.2230086697286Q314.54544775815214 424.09983119957116 309.56655279809775 409.9114195503989Q304.5876578380434 395.7230079012267 304.5876578380434 376.23912415581157L304.5876578380434 376.23912415581157Q304.5876578380434 355.9206279604452 310.0845881118606 341.732216311273Q315.58151838567784 327.5438046621007 324.5895768972213 318.53574615055726Q333.5976354087648 309.5276876390138 344.79295413397375 305.38340512891074Q355.9882728591827 301.23912261880764 367.5865079395405 301.23912261880764L367.5865079395405 301.23912261880764Q380.0193554698497 301.23912261880764 387.9050041349069 302.5629906428684Q395.7618730603106 303.9156384065826 401.37392229274184 306.18923783920854L401.37392229274184 306.18923783920854L397.2296397826388 321.32738089694607Q387.27184986253 316.5499441144662 368.82403674464075 316.5499441144662L368.82403674464075 316.5499441144662Q360.33401354686015 316.5499441144662 352.04544852665407 319.6581559970435Q343.756883506448 322.76636787962076 337.22388260510496 329.81740409472667Q330.69088170376193 336.8684403098326 326.77683711088685 348.26521721261594Q322.8340127783582 359.6619941153994 322.8340127783582 376.23912415581157L322.8340127783582 376.23912415581157Q322.8340127783582 391.14702929632125 326.5465991936589 402.3423480215302Q330.287965348613 413.53766674673915 336.82096624995603 420.9916193169939Q343.35396715129906 428.4455718872487 352.160567485268 432.1869380422028Q360.96716781923703 435.92830419715705 371.3278740944947 435.92830419715705L371.3278740944947 435.92830419715705Q380.6525097422265 435.92830419715705 387.5884269987185 434.05762111967994Q394.5243442552104 432.1869380422028 399.3017810376903 429.28018433720007L399.3017810376903 429.28018433720007Z " fill="#e7d045" transform="matrix(0.6671995720540245,0,0,0.6671995720540246,0,48.97341006239091)"/><path d="M698.7309840711374 429.28018433720007L702.8752665812406 442.74910249503495Q696.6588428160859 447.5265392775149 687.1039692511262 449.3972223549919Q677.5778754258198 451.23912569281555 666.8142527954132 451.23912569281555L666.8142527954132 451.23912569281555Q653.7482509927272 451.23912569281555 642.3514740899437 446.8070457861775Q630.9546971871604 442.346186139886 622.4646739893798 433.2230086697286Q613.9746507915992 424.09983119957116 608.9957558315449 409.9114195503989Q604.0168608714905 395.7230079012267 604.0168608714905 376.23912415581157L604.0168608714905 376.23912415581157Q604.0168608714905 355.9206279604452 609.5137911453078 341.732216311273Q615.0107214191249 327.5438046621007 624.0187799306685 318.53574615055726Q633.0268384422119 309.5276876390138 644.2221571674208 305.38340512891074Q655.4174758926298 301.23912261880764 667.0157109729877 301.23912261880764L667.0157109729877 301.23912261880764Q679.4485585032968 301.23912261880764 687.334207168354 302.5629906428684Q695.1910760937577 303.9156384065826 700.8031253261889 306.18923783920854L700.8031253261889 306.18923783920854L696.6588428160859 321.32738089694607Q686.7010528959771 316.5499441144662 668.253239778088 316.5499441144662L668.253239778088 316.5499441144662Q659.7632165803074 316.5499441144662 651.4746515601013 319.6581559970435Q643.1860865398951 322.76636787962076 636.653085638552 329.81740409472667Q630.1200847372091 336.8684403098326 626.206040144334 348.26521721261594Q622.2632158118054 359.6619941153994 622.2632158118054 376.23912415581157L622.2632158118054 376.23912415581157Q622.2632158118054 391.14702929632125 625.975802227106 402.3423480215302Q629.7171683820601 413.53766674673915 636.2501692834031 420.9916193169939Q642.7831701847462 428.4455718872487 651.5897705187152 432.1869380422028Q660.3963708526842 435.92830419715705 670.7570771279418 435.92830419715705L670.7570771279418 435.92830419715705Q680.0817127756737 435.92830419715705 687.0176300321656 434.05762111967994Q693.9535472886575 432.1869380422028 698.7309840711374 429.28018433720007L698.7309840711374 429.28018433720007ZM730.2160192520593 448.7640680826151L730.2160192520593 345.15700533003866L746.7931492924715 345.15700533003866L746.7931492924715 448.7640680826151L730.2160192520593 448.7640680826151ZM726.704891014333 313.6719701491168L726.704891014333 313.6719701491168Q726.704891014333 308.8945333666369 729.8994421158709 305.46974434787126Q733.1227729570621 302.0449553291055 738.1016679171165 302.0449553291055L738.1016679171165 302.0449553291055Q743.0517831375173 302.0449553291055 746.591691114897 305.46974434787126Q750.1028193526232 308.8945333666369 750.1028193526232 313.6719701491168L750.1028193526232 313.6719701491168Q750.1028193526232 318.4206271919433 746.591691114897 321.5288390745206Q743.0517831375173 324.63705095709787 738.1016679171165 324.63705095709787L738.1016679171165 324.63705095709787Q733.1227729570621 324.63705095709787 729.8994421158709 321.5288390745206Q726.704891014333 318.4206271919433 726.704891014333 313.6719701491168ZM865.3081171855574 448.7640680826151L848.7309871451453 448.7640680826151L848.7309871451453 389.70804231364656Q848.7309871451453 373.5338286283832 844.0686693212793 365.3603825667911Q839.4063514974134 357.18693650519896 826.9735039671043 357.18693650519896L826.9735039671043 357.18693650519896Q816.0084231591233 357.18693650519896 808.8422679854034 363.08678313416505Q801.704892551337 368.98662976313125 798.7981388463342 377.90834905571427L798.7981388463342 377.90834905571427L798.7981388463342 448.7640680826151L782.221008805922 448.7640680826151L782.221008805922 345.15700533003866L793.8192438862798 345.15700533003866L796.927455768857 357.7913110379223L797.7620682188084 357.7913110379223Q802.7409631788628 351.1719709176188 811.1446471576828 346.9125694489018Q819.5195513968495 342.6819477198382 831.1177864772073 342.6819477198382L831.1177864772073 342.6819477198382Q839.6365894146414 342.6819477198382 846.0544713573704 344.6389700162758Q852.4723533000995 346.59599231271335 856.7317547688165 351.57488727276774Q860.9623764978801 356.55378223282213 863.1496367115456 364.95746621164216Q865.3081171855574 373.3323704508088 865.3081171855574 386.19691407592035L865.3081171855574 386.19691407592035L865.3081171855574 448.7640680826151ZM965.0011353452588 428.4455718872487L971.2175591104134 440.475503062409Q965.0011353452588 445.4543980224633 955.5613807389129 448.36115172746617Q946.1216261325671 451.23912569281555 935.559461679735 451.23912569281555L935.559461679735 451.23912569281555Q923.7597684218027 451.23912569281555 915.0395073067941 447.41142031890087Q906.3480259314392 443.5837149449863 900.7647564386614 436.4463395109199Q895.1527072062302 429.28018433720007 892.4761914184553 419.3511741567448Q889.7708958910268 409.393384236636 889.7708958910268 396.9605367063269L889.7708958910268 396.9605367063269Q889.7708958910268 370.42561674580594 901.5705891489592 356.55378223282213Q913.399062146545 342.6819477198382 935.3580035021605 342.6819477198382L935.3580035021605 342.6819477198382Q942.4090397172665 342.6819477198382 949.4600759323723 344.23605366112685Q956.4823324078247 345.7901596024155 962.094381640256 350.13590029009305Q967.6776511330337 354.4816409777706 971.2175591104134 362.4536288617882Q974.7286873481396 370.42561674580594 974.7286873481396 383.491618548492L974.7286873481396 383.491618548492Q974.7286873481396 390.3411965860234 973.4911585430393 398.62976160622947L973.4911585430393 398.62976160622947L906.981180203816 398.62976160622947Q906.981180203816 407.7241593367334 908.8230835416396 414.7751955518393Q910.6937666191167 421.8262317669452 914.6365909516453 426.69000776838556Q918.5794152841739 431.553783769826 924.882178268289 434.1439603386404Q931.2137209920575 436.7341369074548 940.336898462215 436.7341369074548L940.336898462215 436.7341369074548Q947.3879346773208 436.7341369074548 954.4101911527732 434.25907929725435Q961.4612273678791 431.784021687054 965.0011353452588 428.4455718872487L965.0011353452588 428.4455718872487ZM935.559461679735 357.18693650519896L935.559461679735 357.18693650519896Q923.3280723270003 357.18693650519896 915.9892387153595 363.6048184479279Q908.6216253640652 370.022700390657 907.1826383813905 385.5637598035435L907.1826383813905 385.5637598035435L958.5544736628763 385.5637598035435Q958.5544736628763 369.8212422130826 952.5682878149496 363.489699489314Q946.5533222273696 357.18693650519896 935.559461679735 357.18693650519896ZM1074.5943839457618 303.7141802290081L1074.5943839457618 423.2652187496199Q1074.5943839457618 430.51771314230024 1077.098221295616 433.6259250248775Q1079.5732789058166 436.7341369074548 1084.1492575107218 436.7341369074548L1084.1492575107218 436.7341369074548Q1086.8257732984966 436.7341369074548 1089.9339851810741 436.33122055230587Q1093.0421970636512 435.92830419715705 1096.98502139618 434.46053747482887L1096.98502139618 434.46053747482887L1098.8557044736572 447.5265392775149Q1095.5460344135054 449.16698443776403 1089.6174080448855 450.2030550652898Q1083.7175614159196 451.23912569281555 1079.3718207282418 451.23912569281555L1079.3718207282418 451.23912569281555Q1070.0471850805102 451.23912569281555 1064.03221949293 445.9724333362262Q1058.0172539053497 440.6769612399834 1058.0172539053497 428.0426555320998L1058.0172539053497 428.0426555320998L1058.0172539053497 303.7141802290081L1074.5943839457618 303.7141802290081ZM1120.1814915568957 448.7640680826151L1120.1814915568957 345.15700533003866L1136.7586215973079 345.15700533003866L1136.7586215973079 448.7640680826151L1120.1814915568957 448.7640680826151ZM1116.6703633191692 313.6719701491168L1116.6703633191692 313.6719701491168Q1116.6703633191692 308.8945333666369 1119.8936941603606 305.46974434787126Q1123.0882452618985 302.0449553291055 1128.0671402219527 302.0449553291055L1128.0671402219527 302.0449553291055Q1133.046035182007 302.0449553291055 1136.5571634197331 305.46974434787126Q1140.0970713971128 308.8945333666369 1140.0970713971128 313.6719701491168L1140.0970713971128 313.6719701491168Q1140.0970713971128 318.4206271919433 1136.5571634197331 321.5288390745206Q1133.046035182007 324.63705095709787 1128.0671402219527 324.63705095709787L1128.0671402219527 324.63705095709787Q1123.0882452618985 324.63705095709787 1119.8936941603606 321.5288390745206Q1116.6703633191692 318.4206271919433 1116.6703633191692 313.6719701491168ZM1217.8023684615455 420.58870296184494L1217.8023684615455 420.58870296184494Q1217.8023684615455 414.3722791966904 1214.061002306591 410.8323712193107Q1210.319636151637 407.3212429815845 1204.8514856174734 404.9325245903446Q1199.354555343656 402.5438061991046 1192.8215544423128 400.3853257250926Q1186.28855354097 398.19806551142705 1180.7916232671528 394.7732764926614Q1175.323472732989 391.37726721354915 1171.5821065780347 385.96667615869234Q1167.8407404230807 380.58486484348913 1167.8407404230807 371.4616873733317L1167.8407404230807 371.4616873733317Q1167.8407404230807 356.55378223282213 1176.3595433605146 349.61786497633017Q1184.8495665582955 342.6819477198382 1199.9589298763794 342.6819477198382L1199.9589298763794 342.6819477198382Q1211.1542486015883 342.6819477198382 1218.723320130457 344.6389700162758Q1226.2923916593259 346.59599231271335 1231.8756611521035 349.3012878401417L1231.8756611521035 349.3012878401417L1227.9328368195747 362.9716641755511Q1223.1841797767484 360.69806474292517 1216.4497206978313 358.942500624062Q1209.7152616189137 357.18693650519896 1202.031071131431 357.18693650519896L1202.031071131431 357.18693650519896Q1192.9366734009268 357.18693650519896 1188.6772719322098 360.29514838777624Q1184.4178704634928 363.4033602703535 1184.4178704634928 371.05877101818277L1184.4178704634928 371.05877101818277Q1184.4178704634928 376.4405823333861 1188.1592366184473 379.4624549970029Q1191.9006027734013 382.45554792096624 1197.368753307565 384.8442663122061Q1202.8656835813822 387.2329847034461 1209.398684482725 389.50658413607204Q1215.9316853840683 391.7801835686981 1221.4286156578855 395.5215497236522Q1226.8967661920492 399.2341361389529 1230.6381323470036 404.9325245903446Q1234.3794985019576 410.6309130417363 1234.3794985019576 419.9555486894681L1234.3794985019576 419.9555486894681Q1234.3794985019576 426.6036685494251 1232.1922382882922 432.38839621977735Q1230.0049780746267 438.201903629783 1225.4577792093746 442.346186139886Q1220.9105803441225 446.49046864998905 1214.176121265205 448.87918704122905Q1207.4416621862879 451.23912569281555 1198.3184847161301 451.23912569281555L1198.3184847161301 451.23912569281555Q1186.4900117185443 451.23912569281555 1178.2014466983383 448.9655262601895Q1169.9128816781322 446.6919268275636 1164.3296121853546 443.5837149449863L1164.3296121853546 443.5837149449863L1169.3085071454088 429.4816425147745Q1174.0571641882352 432.1869380422028 1181.741354675718 434.46053747482887Q1189.396765423547 436.7341369074548 1197.2824140886046 436.7341369074548L1197.2824140886046 436.7341369074548Q1206.175353641534 436.7341369074548 1211.9888610515395 433.2230086697286Q1217.8023684615455 429.7118804320024 1217.8023684615455 420.58870296184494ZM1245.7762754047408 359.6619941153994L1245.7762754047408 345.15700533003866L1261.9217093503507 345.15700533003866L1261.9217093503507 324.63705095709787L1278.498839390763 319.8883939142714L1278.498839390763 345.15700533003866L1306.674204511533 345.15700533003866L1306.674204511533 359.6619941153994L1278.498839390763 359.6619941153994L1278.498839390763 417.04879498446536Q1278.498839390763 427.8411973545254 1281.2041349181914 432.3020570008169Q1283.8806507059662 436.7341369074548 1290.3273123883487 436.7341369074548L1290.3273123883487 436.7341369074548Q1295.709123703552 436.7341369074548 1299.4217101188528 435.6117270609686Q1303.1630762738068 434.46053747482887 1307.710275139059 432.58985439735176L1307.710275139059 432.58985439735176L1311.451641294013 445.2529398448889Q1305.8683718012353 447.92945563266375 1299.220251941278 449.59868053256645Q1292.600911820975 451.23912569281555 1284.9167213334922 451.23912569281555L1284.9167213334922 451.23912569281555Q1272.2824156256083 451.23912569281555 1267.1020624879798 444.1017502587492Q1261.9217093503507 436.9643748246828 1261.9217093503507 420.15700686704264L1261.9217093503507 420.15700686704264L1261.9217093503507 359.6619941153994L1245.7762754047408 359.6619941153994Z " fill="#a04ef6" transform="matrix(0.6671995720540245,0,0,0.6671995720540246,0,48.97341006239091)"/></g></svg>